<?xml version="1.0" encoding="utf-8"?>
<!-- Generator: Adobe Illustrator 22.1.0, SVG Export Plug-In . SVG Version: 6.00 Build 0)  -->
<svg version="1.1" id="Layer_1" xmlns="http://www.w3.org/2000/svg" xmlns:xlink="http://www.w3.org/1999/xlink" x="0px" y="0px"
	 viewBox="0 0 651.6 147.8" style="enable-background:new 0 0 651.6 147.8;" xml:space="preserve">
<style type="text/css">
	.st0{fill:none;stroke:#000000;stroke-miterlimit:5;}
</style>
<g>
	<path class="st0" d="M303.2,64.7v3c-2.4-2.4-5-3.7-8-3.7c-3.4,0-6.3,1.3-8.6,3.8c-0.7,0.7-1.2,1.5-1.7,2.3V46H279v24
		c-0.5-0.9-1-1.7-1.7-2.4c-2.2-2.4-5.1-3.6-8.9-3.6c-3.7,0-6.7,1.2-9,3.7c-0.6,0.7-1.2,1.4-1.6,2.3v-5.3h-1.5
		c0.5-0.2,0.8-0.5,1.2-0.8c0.8-0.8,1.1-1.7,1.1-2.7c0-1.1-0.4-2-1.1-2.7c-0.8-0.8-1.7-1.1-2.7-1.1c-1,0-2,0.4-2.7,1.1
		s-1.1,1.6-1.1,2.7c0,1.1,0.4,2,1.1,2.7c0.4,0.4,0.8,0.7,1.2,0.8H252v0.4c-1.4-0.7-2.8-1.1-4.1-1.1c-1.2,0-2.2,0.2-3,0.6
		c-0.8,0.4-1.8,1.2-2.9,2.3v-2.3h-5.9v5.4c-0.5-0.8-1-1.6-1.7-2.3c-2.3-2.6-5.2-3.8-8.6-3.8c-3,0-5.7,1.2-8,3.7V46H212v18.7h-3.4v3
		c-2.3-2.4-5-3.7-8-3.7c-3.4,0-6.3,1.3-8.6,3.8c-0.7,0.8-1.3,1.6-1.8,2.5v-1.2h-16.7v5.7h10.1c-0.3,2.8-1.6,5.3-4,7.3
		c-2.4,2-5.1,3-8.1,3c-3.5,0-6.8-1.4-9.8-4c-3.2-2.9-4.8-6.6-4.8-11.1c0-4.4,1.5-8,4.3-10.9c2.9-3,6.5-4.4,10.8-4.4
		c4.8,0,8.8,2.2,12.1,6.6l4.3-4.2c-2.5-2.9-5.1-5-7.7-6.3c-2.7-1.3-5.7-1.9-8.8-1.9c-5.9,0-10.9,2-15,6.1c-4.1,4.1-6.2,9.1-6.2,14.9
		c0,5.7,2,10.7,6,14.8c4,4.1,8.9,6.1,14.5,6.1c5.8,0,10.6-2.1,14.3-6.3c1.4-1.5,2.4-3.2,3.1-4.9c0.4,2.9,1.5,5.3,3.3,7.4
		c2.3,2.5,5.2,3.8,8.7,3.8c2.8,0,5.4-1.1,7.8-3.4v2.7h9.2v-2.7c2.3,2.3,5,3.4,7.9,3.4c3.5,0,6.4-1.3,8.7-3.8
		c0.6-0.7,1.2-1.5,1.7-2.3v5.4h5.9V77c0-4.8,1.6-7.3,4.8-7.3c1.1,0,2.2,0.4,3.3,1.2l1.9-3.8v23.1h5.9V85c0.5,0.8,1,1.6,1.7,2.3
		c2.3,2.4,5.4,3.7,9.2,3.7c1.3,0,2.6-0.1,3.7-0.4c1.1-0.3,2.2-0.7,3.2-1.3c1-0.6,1.9-1.4,2.8-2.3c0.2-0.2,0.4-0.5,0.6-0.7v4h5.9
		v-5.5c0.5,0.9,1,1.7,1.7,2.4c2.3,2.5,5.2,3.8,8.7,3.8c2.8,0,5.4-1.1,7.8-3.4v2.7h5.9V64.7H303.2z M207.1,83.4
		c-1.4,1.5-3.1,2.2-5.3,2.2c-2,0-3.7-0.8-5.1-2.3c-1.3-1.5-2-3.5-2-6c0-2.3,0.7-4.2,2-5.8c1.4-1.5,3-2.3,5.1-2.3
		c2.2,0,3.9,0.8,5.2,2.3c1.3,1.5,2,3.5,2,5.9C209.1,79.9,208.4,81.9,207.1,83.4z M229.9,83.4c-1.3,1.5-3,2.3-5.1,2.3
		c-2.2,0-3.9-0.8-5.2-2.3c-1.3-1.5-2-3.5-2-5.9c0-2.4,0.7-4.4,2-5.9c1.4-1.5,3.1-2.3,5.3-2.3c2,0,3.7,0.8,5,2.3c1.3,1.5,2,3.5,2,6
		C231.9,80,231.3,81.9,229.9,83.4z M263.6,72.1c0.4-0.6,0.8-1.1,1.3-1.5c0.5-0.4,1.1-0.7,1.7-0.9c0.6-0.2,1.3-0.3,2-0.3
		c3.1,0,5.1,1.6,5.9,4.7h-11.8C262.9,73.3,263.2,72.7,263.6,72.1z M279,82.5l-3.2-1.8c-1.2,1.9-2.3,3.2-3.2,3.9c-1,0.7-2.2,1-3.6,1
		c-1.9,0-3.4-0.6-4.6-1.8c-1.2-1.2-1.9-2.9-2-5H279V82.5z M301.5,83.4c-1.3,1.5-3.1,2.2-5.3,2.2c-2,0-3.7-0.8-5.1-2.3
		c-1.3-1.5-2-3.5-2-6c0-2.3,0.7-4.2,2-5.8c1.4-1.5,3-2.3,5.1-2.3c2.2,0,3.9,0.8,5.2,2.3c1.3,1.5,2,3.5,2,5.9
		C303.5,79.9,302.9,81.9,301.5,83.4z"/>
</g>
</svg>
