<svg xmlns="http://www.w3.org/2000/svg" width="1440" ><path d="M840,494L751,350L643,495Z" fill="#9fbcff" stroke="#9fbcff" stroke-width="1.51"/><path d="M751,350L691,284L643,495Z" fill="#a1caf1" stroke="#a1caf1" stroke-width="1.51"/><path d="M691,284L411,438L643,495Z" fill="#a2d1e8" stroke="#a2d1e8" stroke-width="1.51"/><path d="M643,495L546,728L840,494Z" fill="#a6aafa" stroke="#a6aafa" stroke-width="1.51"/><path d="M477,696L546,728L643,495Z" fill="#ada7ec" stroke="#ada7ec" stroke-width="1.51"/><path d="M840,494L1088,432L751,350Z" fill="#a6a5fc" stroke="#a6a5fc" stroke-width="1.51"/><path d="M828,78L662,95L691,284Z" fill="#a7ded4" stroke="#a7ded4" stroke-width="1.51"/><path d="M1056,657L1088,432L840,494Z" fill="#aa7fff" stroke="#aa7fff" stroke-width="1.51"/><path d="M393,582L477,696L643,495Z" fill="#acb6e6" stroke="#acb6e6" stroke-width="1.51"/><path d="M828,78L691,284L751,350Z" fill="#a6d1df" stroke="#a6d1df" stroke-width="1.51"/><path d="M691,284L292,123L411,438Z" fill="#a3eac7" stroke="#a3eac7" stroke-width="1.51"/><path d="M411,438L393,582L643,495Z" fill="#a8c9e3" stroke="#a8c9e3" stroke-width="1.51"/><path d="M889,853L1056,657L840,494Z" fill="#aa6aff" stroke="#aa6aff" stroke-width="1.51"/><path d="M1088,432L963,146L751,350Z" fill="#adaceb" stroke="#adaceb" stroke-width="1.51"/><path d="M963,146L828,78L751,350Z" fill="#acc8d9" stroke="#acc8d9" stroke-width="1.51"/><path d="M546,728L889,853L840,494Z" fill="#a985ff" stroke="#a985ff" stroke-width="1.51"/><path d="M889,853L1003,802L1056,657Z" fill="#b25ef3" stroke="#b25ef3" stroke-width="1.51"/><path d="M393,582L272,778L477,696Z" fill="#b4aed8" stroke="#b4aed8" stroke-width="1.51"/><path d="M411,438L290,486L393,582Z" fill="#a9d4d5" stroke="#a9d4d5" stroke-width="1.51"/><path d="M147,334L290,486L411,438Z" fill="#b1e2cf" stroke="#b1e2cf" stroke-width="1.51"/><path d="M662,95L292,123L691,284Z" fill="#a2efbf" stroke="#a2efbf" stroke-width="1.51"/><path d="M828,78L731,1L662,95Z" fill="#badbd3" stroke="#badbd3" stroke-width="1.51"/><path d="M685,-51L731,1L935,-80Z" fill="#ced4d2" stroke="#ced4d2" stroke-width="1.51"/><path d="M546,728L593,943L889,853Z" fill="#b9acda" stroke="#b9acda" stroke-width="1.51"/><path d="M477,696L593,943L546,728Z" fill="#b8a8d9" stroke="#b8a8d9" stroke-width="1.51"/><path d="M272,778L593,943L477,696Z" fill="#bab6c9" stroke="#bab6c9" stroke-width="1.51"/><path d="M731,1L685,-51L662,95Z" fill="#c1e1cf" stroke="#c1e1cf" stroke-width="1.51"/><path d="M935,-80L731,1L828,78Z" fill="#c9ccd3" stroke="#c9ccd3" stroke-width="1.51"/><path d="M316,70L292,123L662,95Z" fill="#aefaad" stroke="#aefaad" stroke-width="1.51"/><path d="M593,943L858,1008L889,853Z" fill="#c1bcc2" stroke="#c1bcc2" stroke-width="1.51"/><path d="M889,853L1114,908L1003,802Z" fill="#bf79db" stroke="#bf79db" stroke-width="1.51"/><path d="M56,583L272,778L290,486Z" fill="#c7bcd4" stroke="#c7bcd4" stroke-width="1.51"/><path d="M290,486L272,778L393,582Z" fill="#b8bdd6" stroke="#b8bdd6" stroke-width="1.51"/><path d="M963,146L935,-80L828,78Z" fill="#c5bfd4" stroke="#c5bfd4" stroke-width="1.51"/><path d="M1204,4L935,-80L963,146Z" fill="#cdaad5" stroke="#cdaad5" stroke-width="1.51"/><path d="M1056,657L1312,488L1088,432Z" fill="#b588ec" stroke="#b588ec" stroke-width="1.51"/><path d="M1088,432L1324,260L963,146Z" fill="#b7a6da" stroke="#b7a6da" stroke-width="1.51"/><path d="M1213,798L1312,488L1056,657Z" fill="#bc77e3" stroke="#bc77e3" stroke-width="1.51"/><path d="M1213,798L1056,657L1003,802Z" fill="#b146f5" stroke="#b146f5" stroke-width="1.51"/><path d="M396,-69L316,70L662,95Z" fill="#bbf7b1" stroke="#bbf7b1" stroke-width="1.51"/><path d="M1114,908L1213,798L1003,802Z" fill="#c270d8" stroke="#c270d8" stroke-width="1.51"/><path d="M858,1008L1114,908L889,853Z" fill="#c69ac6" stroke="#c69ac6" stroke-width="1.51"/><path d="M-19,434L147,334L-73,212Z" fill="#d6edbd" stroke="#d6edbd" stroke-width="1.51"/><path d="M292,123L147,334L411,438Z" fill="#aff0bc" stroke="#aff0bc" stroke-width="1.51"/><path d="M1312,488L1324,260L1088,432Z" fill="#bbb6ce" stroke="#bbb6ce" stroke-width="1.51"/><path d="M-73,212L147,334L292,123Z" fill="#c5f9ad" stroke="#c5f9ad" stroke-width="1.51"/><path d="M685,-51L396,-69L662,95Z" fill="#c4ebc1" stroke="#c4ebc1" stroke-width="1.51"/><path d="M655,-231L396,-69L685,-51Z" fill="#d6ebbf" stroke="#d6ebbf" stroke-width="1.51"/><path d="M1442,605L1371,424L1312,488Z" fill="#c2c7b5" stroke="#c2c7b5" stroke-width="1.51"/><path d="M1312,488L1371,424L1324,260Z" fill="#becfb5" stroke="#becfb5" stroke-width="1.51"/><path d="M1293,87L1204,4L963,146Z" fill="#c9b9c2" stroke="#c9b9c2" stroke-width="1.51"/><path d="M1436,119L1293,87L1324,260Z" fill="#bbed8d" stroke="#bbed8d" stroke-width="1.51"/><path d="M1324,260L1293,87L963,146Z" fill="#bcc5b8" stroke="#bcc5b8" stroke-width="1.51"/><path d="M1213,798L1442,605L1312,488Z" fill="#c69ec4" stroke="#c69ec4" stroke-width="1.51"/><path d="M1114,908L1189,977L1213,798Z" fill="#cc97b8" stroke="#cc97b8" stroke-width="1.51"/><path d="M966,1114L1189,977L1114,908Z" fill="#cea4ac" stroke="#cea4ac" stroke-width="1.51"/><path d="M842,-364L655,-231L935,-80Z" fill="#d9aed8" stroke="#d9aed8" stroke-width="1.51"/><path d="M935,-80L655,-231L685,-51Z" fill="#d8d5d1" stroke="#d8d5d1" stroke-width="1.51"/><path d="M835,1247L966,1114L858,1008Z" fill="#d0adc0" stroke="#d0adc0" stroke-width="1.51"/><path d="M858,1008L966,1114L1114,908Z" fill="#cbb2ac" stroke="#cbb2ac" stroke-width="1.51"/><path d="M147,334L56,583L290,486Z" fill="#c4dbd2" stroke="#c4dbd2" stroke-width="1.51"/><path d="M1503,723L1442,605L1213,798Z" fill="#cc9fb5" stroke="#cc9fb5" stroke-width="1.51"/><path d="M1677,302L1436,119L1324,260Z" fill="#bef08b" stroke="#bef08b" stroke-width="1.51"/><path d="M593,943L544,1164L858,1008Z" fill="#c0dea5" stroke="#c0dea5" stroke-width="1.51"/><path d="M272,778L339,1066L593,943Z" fill="#bbe19b" stroke="#bbe19b" stroke-width="1.51"/><path d="M104,1049L339,1066L272,778Z" fill="#caef87" stroke="#caef87" stroke-width="1.51"/><path d="M339,1066L544,1164L593,943Z" fill="#bfeb92" stroke="#bfeb92" stroke-width="1.51"/><path d="M1204,4L1058,-229L935,-80Z" fill="#e1a2d3" stroke="#e1a2d3" stroke-width="1.51"/><path d="M1235,-352L1058,-229L1204,4Z" fill="#e4a3c1" stroke="#e4a3c1" stroke-width="1.51"/><path d="M56,583L24,704L272,778Z" fill="#d5acd4" stroke="#d5acd4" stroke-width="1.51"/><path d="M147,334L-19,434L56,583Z" fill="#d1ded1" stroke="#d1ded1" stroke-width="1.51"/><path d="M56,583L-207,619L24,704Z" fill="#dea8d5" stroke="#dea8d5" stroke-width="1.51"/><path d="M-50,-37L292,123L316,70Z" fill="#cfffa3" stroke="#cfffa3" stroke-width="1.51"/><path d="M1189,977L1361,912L1213,798Z" fill="#cfaea3" stroke="#cfaea3" stroke-width="1.51"/><path d="M1378,1188L1361,912L1189,977Z" fill="#cddf6b" stroke="#cddf6b" stroke-width="1.51"/><path d="M1677,302L1324,260L1371,424Z" fill="#bee899" stroke="#bee899" stroke-width="1.51"/><path d="M1293,87L1441,-3L1204,4Z" fill="#d1e295" stroke="#d1e295" stroke-width="1.51"/><path d="M396,-69L239,-162L316,70Z" fill="#cfffa3" stroke="#cfffa3" stroke-width="1.51"/><path d="M471,-302L239,-162L396,-69Z" fill="#d4eda8" stroke="#d4eda8" stroke-width="1.51"/><path d="M544,1164L835,1247L858,1008Z" fill="#ccc2c2" stroke="#ccc2c2" stroke-width="1.51"/><path d="M966,1114L1289,1210L1189,977Z" fill="#d6a6ab" stroke="#d6a6ab" stroke-width="1.51"/><path d="M842,-364L471,-302L655,-231Z" fill="#d8afd5" stroke="#d8afd5" stroke-width="1.51"/><path d="M655,-231L471,-302L396,-69Z" fill="#d6d9bb" stroke="#d6d9bb" stroke-width="1.51"/><path d="M1442,605L1677,302L1371,424Z" fill="#c5d4b3" stroke="#c5d4b3" stroke-width="1.51"/><path d="M1361,912L1503,723L1213,798Z" fill="#cfada3" stroke="#cfada3" stroke-width="1.51"/><path d="M1058,-229L842,-364L935,-80Z" fill="#db96d9" stroke="#db96d9" stroke-width="1.51"/><path d="M471,-302L230,-197L239,-162Z" fill="#dde1aa" stroke="#dde1aa" stroke-width="1.51"/><path d="M-50,-37L-73,212L292,123Z" fill="#d8ffa2" stroke="#d8ffa2" stroke-width="1.51"/><path d="M544,1164L485,1246L835,1247Z" fill="#d1c0c7" stroke="#d1c0c7" stroke-width="1.51"/><path d="M339,1066L485,1246L544,1164Z" fill="#cbdca5" stroke="#cbdca5" stroke-width="1.51"/><path d="M203,1230L485,1246L339,1066Z" fill="#d0e09e" stroke="#d0e09e" stroke-width="1.51"/><path d="M1436,119L1441,-3L1293,87Z" fill="#c7f67e" stroke="#c7f67e" stroke-width="1.51"/><path d="M1058,-229L1235,-352L842,-364Z" fill="#da62de" stroke="#da62de" stroke-width="1.51"/><path d="M1609,20L1441,-3L1436,119Z" fill="#d2f482" stroke="#d2f482" stroke-width="1.51"/><path d="M-207,619L-135,853L24,704Z" fill="#dd83d9" stroke="#dd83d9" stroke-width="1.51"/><path d="M-50,-37L316,70L239,-162Z" fill="#e1ffa1" stroke="#e1ffa1" stroke-width="1.51"/><path d="M24,704L104,1049L272,778Z" fill="#dac8b1" stroke="#dac8b1" stroke-width="1.51"/><path d="M-73,212L-175,306L-19,434Z" fill="#d6d6c2" stroke="#d6d6c2" stroke-width="1.51"/><path d="M-121,983L75,1123L104,1049Z" fill="#e7f87a" stroke="#e7f87a" stroke-width="1.51"/><path d="M-206,209L-175,306L-73,212Z" fill="#d8d1b9" stroke="#d8d1b9" stroke-width="1.51"/><path d="M230,-197L-50,-37L239,-162Z" fill="#f0faa1" stroke="#f0faa1" stroke-width="1.51"/><path d="M1644,945L1669,788L1503,723Z" fill="#daa3ae" stroke="#daa3ae" stroke-width="1.51"/><path d="M835,1247L1289,1210L966,1114Z" fill="#d685ce" stroke="#d685ce" stroke-width="1.51"/><path d="M1441,-3L1410,-195L1204,4Z" fill="#deec88" stroke="#deec88" stroke-width="1.51"/><path d="M104,1049L203,1230L339,1066Z" fill="#d8ec8d" stroke="#d8ec8d" stroke-width="1.51"/><path d="M-135,853L104,1049L24,704Z" fill="#e7cca8" stroke="#e7cca8" stroke-width="1.51"/><path d="M75,1123L203,1230L104,1049Z" fill="#e4e890" stroke="#e4e890" stroke-width="1.51"/><path d="M1410,-195L1235,-352L1204,4Z" fill="#e7c7a2" stroke="#e7c7a2" stroke-width="1.51"/><path d="M1441,-3L1609,20L1410,-195Z" fill="#e1f57e" stroke="#e1f57e" stroke-width="1.51"/><path d="M1709,585L1677,302L1442,605Z" fill="#cfb8c7" stroke="#cfb8c7" stroke-width="1.51"/><path d="M-207,619L56,583L-19,434Z" fill="#dab9d5" stroke="#dab9d5" stroke-width="1.51"/><path d="M-175,306L-207,619L-19,434Z" fill="#d6bbd8" stroke="#d6bbd8" stroke-width="1.51"/><path d="M1289,1210L1378,1188L1189,977Z" fill="#d9c68b" stroke="#d9c68b" stroke-width="1.51"/><path d="M1503,723L1709,585L1442,605Z" fill="#d1a3bf" stroke="#d1a3bf" stroke-width="1.51"/><path d="M1677,302L1609,20L1436,119Z" fill="#cae993" stroke="#cae993" stroke-width="1.51"/><path d="M1669,788L1709,585L1503,723Z" fill="#d588cc" stroke="#d588cc" stroke-width="1.51"/><path d="M-175,306L-206,209L-207,619Z" fill="#d8b6d0" stroke="#d8b6d0" stroke-width="1.51"/><path d="M-50,-37L-206,209L-73,212Z" fill="#dce3aa" stroke="#dce3aa" stroke-width="1.51"/><path d="M1644,945L1503,723L1361,912Z" fill="#d5c28f" stroke="#d5c28f" stroke-width="1.51"/><path d="M-175,895L-121,983L-135,853Z" fill="#e7b9a3" stroke="#e7b9a3" stroke-width="1.51"/><path d="M-135,853L-121,983L104,1049Z" fill="#e6df8a" stroke="#e6df8a" stroke-width="1.51"/><path d="M75,1123L-224,1258L203,1230Z" fill="#f9da9f" stroke="#f9da9f" stroke-width="1.51"/><path d="M-207,619L-175,895L-135,853Z" fill="#e186ca" stroke="#e186ca" stroke-width="1.51"/><path d="M1927,803L1942,456L1709,585Z" fill="#d780e2" stroke="#d780e2" stroke-width="1.51"/><path d="M1595,1135L1644,945L1361,912Z" fill="#d2ea5e" stroke="#d2ea5e" stroke-width="1.51"/><path d="M230,-197L77,-330L-50,-37Z" fill="#f7e9a5" stroke="#f7e9a5" stroke-width="1.51"/><path d="M-50,-37L-274,-121L-206,209Z" fill="#efd3ad" stroke="#efd3ad" stroke-width="1.51"/><path d="M471,-302L77,-330L230,-197Z" fill="#e5d0ae" stroke="#e5d0ae" stroke-width="1.51"/><path d="M842,-364L77,-330L471,-302Z" fill="#dbb8bf" stroke="#dbb8bf" stroke-width="1.51"/><path d="M1677,302L1743,106L1609,20Z" fill="#d4d9a6" stroke="#d4d9a6" stroke-width="1.51"/><path d="M1609,20L1692,-297L1410,-195Z" fill="#f1db92" stroke="#f1db92" stroke-width="1.51"/><path d="M1784,248L1743,106L1677,302Z" fill="#d5cab8" stroke="#d5cab8" stroke-width="1.51"/><path d="M1942,456L1677,302L1709,585Z" fill="#d4a7e1" stroke="#d4a7e1" stroke-width="1.51"/><path d="M1942,456L1784,248L1677,302Z" fill="#d6b5d1" stroke="#d6b5d1" stroke-width="1.51"/><path d="M1378,1188L1595,1135L1361,912Z" fill="#d0f055" stroke="#d0f055" stroke-width="1.51"/><path d="M1863,1218L1595,1135L1378,1188Z" fill="#ecc293" stroke="#ecc293" stroke-width="1.51"/><path d="M77,-330L-139,-197L-50,-37Z" fill="#ffdda8" stroke="#ffdda8" stroke-width="1.51"/><path d="M77,-330L-274,-121L-139,-197Z" fill="#ffc2af" stroke="#ffc2af" stroke-width="1.51"/><path d="M-139,-197L-274,-121L-50,-37Z" fill="#ffd5aa" stroke="#ffd5aa" stroke-width="1.51"/><path d="M-206,209L-274,-121L-207,619Z" fill="#dac0bc" stroke="#dac0bc" stroke-width="1.51"/><path d="M1927,803L1709,585L1669,788Z" fill="#d864e2" stroke="#d864e2" stroke-width="1.51"/><path d="M1983,88L1866,-133L1743,106Z" fill="#eec8b5" stroke="#eec8b5" stroke-width="1.51"/><path d="M1927,803L1669,788L1644,945Z" fill="#e294bc" stroke="#e294bc" stroke-width="1.51"/><path d="M1410,-195L1692,-297L1235,-352Z" fill="#eacc86" stroke="#eacc86" stroke-width="1.51"/><path d="M1866,-133L1692,-297L1609,20Z" fill="#fdc8ac" stroke="#fdc8ac" stroke-width="1.51"/><path d="M1866,-133L1609,20L1743,106Z" fill="#eeceaf" stroke="#eeceaf" stroke-width="1.51"/><path d="M1915,1009L1927,803L1644,945Z" fill="#e7a9aa" stroke="#e7a9aa" stroke-width="1.51"/><path d="M-207,619L-224,1258L-175,895Z" fill="#e9afa1" stroke="#e9afa1" stroke-width="1.51"/><path d="M-175,895L-224,1258L-121,983Z" fill="#ebce88" stroke="#ebce88" stroke-width="1.51"/><path d="M-121,983L-224,1258L75,1123Z" fill="#f1d294" stroke="#f1d294" stroke-width="1.51"/><path d="M203,1230L-224,1258L485,1246Z" fill="#edd2aa" stroke="#edd2aa" stroke-width="1.51"/><path d="M485,1246L-224,1258L835,1247Z" fill="#d4d2ae" stroke="#d4d2ae" stroke-width="1.51"/><path d="M-274,-121L-224,1258L-207,619Z" fill="#da83dd" stroke="#da83dd" stroke-width="1.51"/><path d="M1983,88L1743,106L1784,248Z" fill="#dbc9b7" stroke="#dbc9b7" stroke-width="1.51"/><path d="M1927,803L1983,88L1942,456Z" fill="#d4a7e2" stroke="#d4a7e2" stroke-width="1.51"/><path d="M1942,456L1983,88L1784,248Z" fill="#d7bec6" stroke="#d7bec6" stroke-width="1.51"/><path d="M1927,803L1915,1009L1983,88Z" fill="#d77be2" stroke="#d77be2" stroke-width="1.51"/><path d="M1595,1135L1915,1009L1644,945Z" fill="#e6cf83" stroke="#e6cf83" stroke-width="1.51"/><path d="M1595,1135L1863,1218L1915,1009Z" fill="#f1b2a2" stroke="#f1b2a2" stroke-width="1.51"/><path d="M1289,1210L1863,1218L1378,1188Z" fill="#e6cd86" stroke="#e6cd86" stroke-width="1.51"/><path d="M835,1247L1863,1218L1289,1210Z" fill="#e2be95" stroke="#e2be95" stroke-width="1.51"/><path d="M1692,-297L1823,-381L1235,-352Z" fill="#f6a2a3" stroke="#f6a2a3" stroke-width="1.51"/><path d="M1235,-352L1823,-381L842,-364Z" fill="#eb94aa" stroke="#eb94aa" stroke-width="1.51"/><path d="M1866,-133L1823,-381L1692,-297Z" fill="#fd95be" stroke="#fd95be" stroke-width="1.51"/><path d="M1983,88L1823,-381L1866,-133Z" fill="#ffbeb5" stroke="#ffbeb5" stroke-width="1.51"/></svg>
